<svg width="580" height="163" xmlns="http://www.w3.org/2000/svg">
 <!-- Created with Method Draw - http://github.com/duopixel/Method-Draw/ -->

 <g>
  <title>background</title>
  <rect fill="#fff" id="canvas_background" height="165" width="582" y="-1" x="-1"/>
 </g>
 <g>
  <title>Layer 1</title>
  <g stroke="null" id="svg_7">
   <path stroke="null" id="svg_4" d="m219.889356,56.594777l-20.106815,0l5.655042,-3.298774c1.570845,-0.785422 2.042098,-2.827521 1.099591,-4.241281l-21.834744,-38.014447c-0.471253,-0.785422 -1.099591,-1.256676 -1.885014,-1.41376c-0.785422,-0.157084 -1.727929,-0.157084 -2.356267,0.314169l-65.504233,37.386109c-0.785422,0.471253 -1.256676,1.099591 -1.41376,1.885014c-0.157084,0.785422 -0.157084,1.727929 0.314169,2.356267l2.827521,5.026704l-31.888152,0c-1.727929,0 -3.14169,1.41376 -3.14169,3.14169l0,87.967316c0,1.727929 1.41376,3.14169 3.14169,3.14169l135.092663,0c1.727929,0 3.14169,-1.41376 3.14169,-3.14169l0,-87.967316c0,-1.727929 -1.41376,-3.14169 -3.14169,-3.14169zm-39.114039,-39.742376l18.693055,32.673574l-42.412813,24.348096l-23.248505,0l-12.880928,-22.620167l59.849191,-34.401504zm35.972349,127.709692l-128.809283,0l0,-47.125348l128.809283,0l0,47.125348zm0,-53.408727l-128.809283,0l0,-28.275209l32.359405,0l6.28338,10.995914l-19.792646,0c-1.727929,0 -3.14169,1.41376 -3.14169,3.14169c0,1.727929 1.41376,3.14169 3.14169,3.14169l91.109005,0c1.727929,0 3.14169,-1.41376 3.14169,-3.14169c0,-1.727929 -1.41376,-3.14169 -3.14169,-3.14169l-28.275209,0l19.164308,-10.995914l27.96104,0l0,28.275209zm-68.645923,-35.029842c0.471253,-1.727929 2.199183,-2.670436 3.927112,-2.199183l6.126295,1.570845l4.869619,-18.221801c0.471253,-1.727929 2.199183,-2.670436 3.927112,-2.199183s2.670436,2.199183 2.199183,3.927112l-5.812126,21.206406c-0.314169,1.41376 -1.570845,2.356267 -2.984605,2.356267c-0.314169,0 -0.628338,0 -0.785422,-0.157084l-9.110901,-2.513352c-1.885014,-0.471253 -2.827521,-2.199183 -2.356267,-3.770028z"/>
   <text stroke="null" transform="matrix(3.594865228455949,0,0,2.2422798315249777,-686.962562498837,-140.706131973556) " id="svg_5" font-family="'Helvetica Neue', Helvetica, Arial-Unicode, Arial, Sans-serif" font-weight="bold" font-size="5px" fill="#000000" y="176.96246" x="211.765037">Created by Mark Aventura</text>
   <text stroke="null" transform="matrix(3.594865228455949,0,0,2.2422798315249777,-686.962562498837,-140.706131973556) " id="svg_6" font-family="'Helvetica Neue', Helvetica, Arial-Unicode, Arial, Sans-serif" font-weight="bold" font-size="5px" fill="#000000" y="181.96246" x="211.765037">from the Noun Project</text>
  </g>
  <text stroke="#000" transform="matrix(5.54540041495818,0,0,5.54540041495818,-1235.8637453922022,-555.2718430101464) " xml:space="preserve" text-anchor="start" font-family="Helvetica, Arial, sans-serif" font-size="24" id="svg_8" y="124.666819" x="263.200902" stroke-width="0" fill="#000000">Elect</text>
 </g>
</svg>